<?xml version="1.0" encoding="utf-8"?>
<!-- Generator: Adobe Illustrator 19.2.1, SVG Export Plug-In . SVG Version: 6.00 Build 0)  -->
<!DOCTYPE svg PUBLIC "-//W3C//DTD SVG 1.1//EN" "http://www.w3.org/Graphics/SVG/1.1/DTD/svg11.dtd">
<svg version="1.1" id="Layer_1" xmlns="http://www.w3.org/2000/svg" xmlns:xlink="http://www.w3.org/1999/xlink" x="0px" y="0px"
	 viewBox="0 0 378 358" style="enable-background:new 0 0 378 358;" xml:space="preserve">
<style type="text/css">
	.st0{fill:#ffffff;}
</style>
<g>
	<path class="st0" d="M33.1,350.6c-3.9,4.1-9.3,6.4-16.9,6.4c-6.6,0-12.3-2.4-16.2-6.3l10.1-9.9c1,1.5,3.5,3,6,3
		c4.5,0,7.5-3.1,7.5-8.8v-52.5h15v52.5C38.7,341.2,36.8,346.7,33.1,350.6z"/>
	<path class="st0" d="M45.7,355.4v-73h34v13h-20v16h17v14h-17v17h20v13H45.7z"/>
	<path class="st0" d="M84.7,355.4v-73h15v60h19v13H84.7z"/>
	<path class="st0" d="M122.7,355.4v-73h15v60h19v13H122.7z"/>
	<path class="st0" d="M176.7,328.4v27h-13v-27l-15.7-46h16.2l6.2,26.7l6.2-26.7h16.2L176.7,328.4z"/>
	<path class="st0" d="M244.3,350.9c-3.1,3.2-8,4.5-15.3,4.5h-21.3v-73H229c7.4,0,12.2,1.7,15.4,4.8c3.5,3.4,4.9,8.8,4.9,15.9
		c0,4.8-0.4,8.8-3.5,11.9c-0.9,0.9-2,1.8-3.4,2.5c1.3,0.7,2.4,1.7,3.3,2.6c3.4,3.8,3.6,9.1,3.6,13.3
		C249.3,341.3,248,347.1,244.3,350.9z M226.8,295.4h-4.1v16h4.1c5.8,0,7.8-2.5,7.8-8C234.6,297.8,232.7,295.4,226.8,295.4z
		 M227,323.4h-4.3v19h4.3c5.9,0,7.6-2.8,7.6-9.5C234.6,326.2,232.7,323.4,227,323.4z"/>
	<path class="st0" d="M287.6,355.4l-2.4-11h-17l-2.4,11h-15.3l19-73H284l19,73H287.6z M276.7,304l-5.7,27.3h11.4L276.7,304z"/>
	<path class="st0" d="M304.7,355.4v-73h15v60h19v13H304.7z"/>
	<path class="st0" d="M342.7,355.4v-73h15v60h19v13H342.7z"/>
</g>
<g>
	<g>
		<path class="st0" d="M290.7,115.5c0-30-22.1-54.9-50.9-59.4c-10-19.2-30.1-32.3-53.2-32.3c-23.5,0-43.8,13.5-53.7,33.1
			C104.1,61.4,82,86.3,82,116.3c0,16.7,6.8,31.8,17.8,42.7c-0.5,3.2-0.8,6.4-0.8,9.7c0,28.2,19.4,51.8,45.5,58.3l-6.2-86.9
			c-2.2-1.7-3.3-3.9-3.3-6.6c0-4.3,2.9-7.4,8.7-9.3c2.8-0.9,6.7-1.7,11.6-2.4c9.3-1.3,21.6-2,34.7-2l-2.1,7.1
			c-25.5,0.2-45.8,3.1-45.8,6.6c0,3.7,21.7,6.7,48.4,6.7s48.4-3,48.4-6.7c0-2.2-7.8-4.2-19.8-5.4l2-6.9c1.6,0.2,3.1,0.4,4.6,0.6
			c4.9,0.7,8.8,1.5,11.6,2.4c5.8,1.9,8.7,5,8.7,9.3c0,2.6-1.1,4.8-3.3,6.6l-6,84c21.7-9.1,36.9-30.5,36.9-55.4c0-3.5-0.3-7-0.9-10.4
			C283.8,147.4,290.7,132.2,290.7,115.5z M225.5,85.4l-13.6,46.1c0,0-2.4,1.8-10.5,1.5c-6.2-0.3-7.9-3.4-7.9-3.4l14.6-49.3
			c0.5-1.8,4.8-2,9.7-0.6C222.6,81,226,83.6,225.5,85.4z"/>
	</g>
	<g>
		<ellipse transform="matrix(0.2831 -0.9591 0.9591 0.2831 74.2438 268.2788)" class="st0" cx="216.6" cy="84.5" rx="1.7" ry="6"/>
	</g>
</g>
<ellipse transform="matrix(0.2832 -0.9591 0.9591 0.2832 74.2322 268.2698)" class="st0" cx="216.6" cy="84.5" rx="1.7" ry="6"/>
<path class="st0" d="M188.9,11c25.1,0,48.1,12.8,61.4,33.7c14.6,3.6,27.8,11.6,37.7,23.1c11.5,13.2,17.8,30.2,17.8,47.7
	c0,17.5-6.1,34-17.3,47.1c0.2,2,0.3,4.1,0.3,6.1c0,40.2-32.7,72.9-72.9,72.9c-9.5,0-18.6-1.8-27.2-5.3c-8.6,3.5-17.8,5.3-27.2,5.3
	c-40.2,0-72.9-32.7-72.9-72.9c0-1.8,0.1-3.5,0.2-5.3c-11.2-13.1-17.2-29.6-17.2-47.1c0-17.5,6.3-34.5,17.8-47.7
	c9.9-11.4,23.1-19.5,37.6-23.1C140.2,24.1,163.4,11,188.9,11 M188.9,2c-27.4,0-52.4,13.3-67.7,35.8c-15.1,4.4-28.4,13-38.7,25
	c-12.9,14.9-20,33.9-20,53.6c0,18.2,6,35.8,17.1,50.1c0,0.8,0,1.5,0,2.3c0,45.2,36.7,81.9,81.9,81.9c9.4,0,18.5-1.6,27.2-4.6
	c8.7,3.1,17.8,4.6,27.2,4.6c45.2,0,81.9-36.7,81.9-81.9c0-1,0-2.1-0.1-3.1c11.1-14.3,17.1-31.9,17.1-50.1c0-19.7-7.1-38.7-20-53.6
	c-10.4-12-23.8-20.6-38.9-25C240.7,15,215.9,2,188.9,2L188.9,2z"/>
</svg>
